<?xml version="1.0" encoding="UTF-8"?>
<!DOCTYPE svg PUBLIC "-//W3C//DTD SVG 1.1//EN" "http://www.w3.org/Graphics/SVG/1.1/DTD/svg11.dtd">
<!-- Creator: CorelDRAW 2019 (64-Bit) -->
<svg xmlns="http://www.w3.org/2000/svg" xml:space="preserve" width="84.6666mm" height="139.435mm" version="1.1" style="shape-rendering:geometricPrecision; text-rendering:geometricPrecision; image-rendering:optimizeQuality; fill-rule:evenodd; clip-rule:evenodd"
viewBox="0 0 8466.66 13943.54"
 xmlns:xlink="http://www.w3.org/1999/xlink">
 <defs>
  <style type="text/css">
   <![CDATA[
    .str0 {stroke:#373435;stroke-width:105.83;stroke-miterlimit:22.9256}
    .fil3 {fill:none}
    .fil4 {fill:#1D681D}
    .fil2 {fill:#323C94}
    .fil0 {fill:#67C8F3}
    .fil5 {fill:#681D1D}
    .fil6 {fill:#9C3B23}
    .fil1 {fill:#9C8C28}
   ]]>
  </style>
 </defs>
 <g id="Capa_x0020_1">
  <metadata id="CorelCorpID_0Corel-Layer"/>
  <g id="_2573943286944">
   <rect class="fil0 str0" x="-9.19" y="30.5" width="8466.66" height="13970"/>
   <path class="fil1 str0" d="M3028.08 4487.55c-62.44,-3.33 -21.73,-514.54 -20.78,-516.55 119.47,-251.95 3.32,-218.19 -25.33,-371.01 -102.53,-546.93 -311.25,-287.51 -322.03,-471.29 -12.55,-213.8 -160.78,-199.9 -195.04,-158.01 -125.69,153.68 -258.39,17.68 -424.47,-31.99 -183.79,-54.97 -64.48,-165.31 -293.73,-90.14 -182.49,303.17 -236.57,-21.08 -236.57,628.53 0,431.13 -88.76,377.52 -93.74,463.1 -27.96,479.85 -98.21,15.35 -104.7,355.02 -4.55,238.21 126.73,202.82 133.42,287.93 22.92,291.43 277.44,660.51 181.81,846.6 -241.37,469.7 -130.02,162.66 -130.02,667.92 0,97.55 169.23,536.55 291.04,532.55 286.25,-9.43 245.41,98.52 303.14,134.2 160.84,99.42 186.34,-110.77 186.34,-219.65 0,-211.69 -73.12,-315.66 27.59,-367.52 302.31,-155.65 648.89,5.61 875.39,-68.26 25.87,-8.44 49.52,-832.95 49.52,-939.85 0,-314.29 145.15,-663.05 -201.84,-681.58z"/>
   <g>
    <path class="fil2 str0" d="M1602.2 6148.18c14.71,221.9 906.04,474.39 904.06,543.17 -9.29,322.41 1305.61,300.84 1325.19,535.97 86.86,1042.97 39.91,212.1 178.4,661.46 49.26,159.82 -658.39,-41.44 -656.92,4.54 13.02,408.32 16.71,311.19 211.67,551.08 3.86,-1.2 211.66,-398.79 211.66,132.3 -4.79,0 -514.89,-169.93 -339.42,-4.54 106.06,99.96 272.05,-45.33 -33.26,194.28 -240.77,188.95 233.46,752.64 -350.76,786.95 -829.96,48.75 728.5,1083.07 83.9,1170.97 -205.31,381.29 -819.36,1205.44 -462.64,1631.34 153.01,182.68 -98.11,-32.52 -648.6,33.27 -193.77,23.16 -175.06,-486.28 -471.72,-449.79 -229.58,28.24 -224.08,-640.41 -83.91,-637.27 256.34,5.73 -24.17,-22.28 59.72,-452.07 57.53,-294.78 267.66,-1028.52 2.27,-1139.97 -377.66,-158.58 593,-177.61 -6.81,-396.88 -69.8,-25.51 -52.62,-549.51 -209.39,-700.77 -2.78,-2.68 -62.74,-933.12 77.1,-937.38 412.89,-12.58 -343.53,-14.64 21.93,-690.18 109.62,-202.64 -329.6,-1024.05 187.53,-836.48z"/>
    <path class="fil3 str0" d="M2755.7 12748.62c17.76,-190.55 173.02,-139.51 57.39,-2.23 1.44,7.37 212.61,176.27 224.9,247.95 25.16,146.74 538.41,235.81 525.77,289.91 -40.72,174.29 -407.91,54.05 -653.52,54.05 -275.77,0 -32.94,-70.68 -157.62,-184.08 -4.93,-4.48 -26.47,-439.95 29.54,-484.98"/>
    <path class="fil2 str0" d="M3037.99 12994.34c-12.29,-71.68 -223.46,-240.58 -224.9,-247.95 113.42,-134.66 -33.8,-186.34 -56.23,-8.42 -22.66,135.22 -8.17,412.68 -4.24,416.25 124.68,113.4 -118.15,184.08 157.62,184.08 245.61,0 612.8,120.24 653.52,-54.05 12.64,-54.1 -500.61,-143.17 -525.77,-289.91z"/>
    <path class="fil2 str0" d="M3747.89 13198.41c-119.98,52.26 178.87,193.18 137.9,40.11 -5.14,-19.22 -122.47,-46.83 -137.9,-40.11z"/>
   </g>
   <path class="fil4 str0" d="M2886.65 7086.47c389.9,0 723.42,142.52 747.19,142.97 110.14,2.08 5.68,751.54 208.71,759.86 393.08,16.1 150.54,-313.32 291.96,-624.62 2.17,-4.78 -191.15,-283.56 -28.15,-224.41 175.82,63.8 804.99,-5.87 931.36,-62.28 522.17,-233.1 442.45,-2.76 807.09,-529.9 433.98,-627.38 -310.32,-242.79 -21.31,-690.2 36.77,-56.93 -324.99,-461.31 -362.33,-462.1 -77.87,-1.66 -76.7,-301.54 -52.68,-330.92 212.58,-260.03 151.21,-387.96 151.21,-728.89 0,-158.56 42.29,-320.53 42.21,-322.44 -20.53,-552.42 -1023.17,327.81 -353.07,-710.48 427.52,-662.4 -998.52,-321.78 -999.32,-296.64 -12.95,406.43 -125.47,459.51 -125.47,857.88 0,46.01 -205.72,-107.96 -206.3,-108.71 -171.24,-223.91 -478.11,-221.84 -788.19,-189.05 -96.53,241.72 -437.25,262.7 -354.29,412.73 162.07,293.08 -82.33,536.84 233.24,628.66 207.77,60.46 59.92,705.38 59.92,966.21 0,238.08 -70.2,447.42 -70.37,454.73 -2.23,98.54 -738.72,107.85 -871.45,117.18 -309.9,21.8 122.51,303.16 -111.84,512.7 18.03,7.5 40.1,15.66 66,23.47 327.38,98.76 35.8,404.25 805.88,404.25z"/>
   <path class="fil5 str0" d="M1922.92 3213.99c557.93,201.92 602.41,-183.29 677.14,193.33 47.22,237.98 382.59,211.08 380.89,476.94 -0.01,1.18 170.98,169.71 183.39,-68.72 12.3,-236.23 503.34,-55.75 750.08,-61.69 192,-4.62 278.71,625.27 307.95,159.39 15.99,-254.9 123.58,-314.15 114.06,-868.17 -2.1,-122.28 85.64,-1001.06 -41.11,-1001.06 -64.31,0 -855.66,21.56 -564.29,-91.92 28.26,-10.99 193.89,-193.81 205.56,-233.07 163.54,-56 202.34,-481.85 202.34,-631.36 0,-256.44 57.27,-353.32 -75.38,-444.22 -243.29,-166.74 -3.56,-302.93 -407.88,-168.09 -126.12,42.06 -210.19,-219.64 -368,207.83 -37.75,102.24 -2.21,-160.64 -432.48,-160.64 -476.85,0 -97.83,-258.78 -648.93,260.83 -76.89,72.49 150.41,637.84 -323.25,723.27 -276.16,49.79 -27.43,297.87 -201.13,550.63 1.14,3.99 263.38,228.69 45.95,405.71 0,62.95 239.86,299.84 -34.26,365.98 -130.71,31.54 -90.7,114.43 -95.63,237.42 249.54,-56.24 78.97,58.57 324.98,147.61z"/>
   <path class="fil6 str0" d="M4341.63 2925.72c4.6,-17.26 -22.24,-832.49 -24.53,-839.1 -272.85,-78.73 -884.77,94.22 -343.96,-366.27 79.06,-67.32 252.49,-862.84 145.52,-1026.2 -101.57,-155.11 1830.16,864.14 1830.16,1029.61 0,248.75 -459.79,682.66 -200.7,745.37 181.99,44.05 55.64,115.66 571.12,115.66 430.63,0 146.71,-112.58 534.84,-131.16 120.9,-5.78 19.09,-773.03 457.35,-636.13 80.73,25.22 103.98,570.37 -24.19,744.23 -117.54,159.45 -885.87,406.85 -1156.61,862.93 -3.43,5.76 -401.78,337.21 -487.21,443.36 -28.51,35.41 -402.86,-56.57 -580.95,-52.91 -266.86,5.48 377.48,-849.57 137.58,-902.99 -111.16,-24.76 -842.63,-45.66 -858.42,13.6z"/>
  </g>
 </g>
</svg>
