<?xml version="1.0" encoding="UTF-8"?>
<!DOCTYPE svg PUBLIC "-//W3C//DTD SVG 1.1//EN" "http://www.w3.org/Graphics/SVG/1.1/DTD/svg11.dtd">
<!-- Creator: CorelDRAW 2019 (64-Bit) -->
<?xml-stylesheet href="mapa inter.css" type="text/css"?>
<svg xmlns="http://www.w3.org/2000/svg" xml:space="preserve" width="2480px" height="3508px" version="1.1" style="shape-rendering:geometricPrecision; text-rendering:geometricPrecision; image-rendering:optimizeQuality; fill-rule:evenodd; clip-rule:evenodd"
viewBox="0 0 2480 3507.43"
 xmlns:xlink="http://www.w3.org/1999/xlink">
 <g id="Capa_x0020_1">
  <metadata id="CorelCorpID_0Corel-Layer"/>
  <rect id="fondo" class="fil0 str0" x="738.98" y="933.99" width="999.87" height="1649.79"/>
  <path id="Curvacuyo" class="fil1 str0" d="M1097.67 1460.34c-7.38,-0.39 -2.57,-60.76 -2.46,-61 14.11,-29.76 0.39,-25.77 -2.99,-43.82 -12.11,-64.59 -36.76,-33.95 -38.03,-55.65 -1.48,-25.25 -18.99,-23.61 -23.03,-18.66 -14.85,18.15 -30.52,2.08 -50.13,-3.78 -21.71,-6.49 -7.62,-19.52 -34.69,-10.65 -21.55,35.81 -27.94,-2.49 -27.94,74.23 0,50.91 -10.48,44.58 -11.07,54.69 -3.3,56.67 -11.6,1.81 -12.36,41.93 -0.54,28.13 14.96,23.95 15.75,34 2.71,34.42 32.77,78 21.48,99.98 -28.51,55.47 -15.36,19.21 -15.36,78.88 0,11.52 19.99,63.36 34.37,62.89 33.81,-1.11 28.98,11.63 35.8,15.85 18.99,11.74 22.01,-13.08 22.01,-25.94 0,-25 -8.64,-37.28 3.25,-43.4 35.71,-18.39 76.64,0.66 103.38,-8.07 3.06,-0.99 5.85,-98.36 5.85,-110.99 0,-37.11 17.14,-78.3 -23.83,-80.49z"/>
  <g id="Curvapata">
   <path id="Secundario_x0020_CurvaPat3" class="fil2 str0" d="M929.28 1656.45c1.73,26.21 107,56.03 106.76,64.15 -1.09,38.07 154.19,35.53 156.5,63.29 10.26,123.17 4.71,25.05 21.07,78.12 5.82,18.87 -77.75,-4.9 -77.58,0.53 1.54,48.23 1.97,36.76 25,65.08 0.45,-0.14 24.99,-47.09 24.99,15.63 -0.56,0 -60.8,-20.07 -40.08,-0.54 12.52,11.81 32.13,-5.35 -3.93,22.95 -28.43,22.31 27.57,88.88 -41.42,92.93 -98.02,5.76 86.03,127.91 9.91,138.29 -24.25,45.03 -96.77,142.35 -54.64,192.65 18.07,21.57 -11.59,-3.84 -76.6,3.93 -22.88,2.73 -20.67,-57.43 -55.7,-53.12 -27.12,3.34 -26.47,-75.63 -9.91,-75.26 30.27,0.68 -2.86,-2.63 7.05,-53.38 6.79,-34.82 31.61,-121.47 0.27,-134.63 -44.6,-18.73 70.03,-20.97 -0.81,-46.87 -8.24,-3.01 -6.21,-64.89 -24.72,-82.76 -0.33,-0.31 -7.41,-110.19 9.1,-110.7 48.76,-1.48 -40.57,-1.73 2.59,-81.5 12.95,-23.93 -38.92,-120.94 22.15,-98.79z"/>
   <path id="Secundario_x0020_CurvaPat2" class="fil2 str0" d="M1098.84 2464.95c-1.46,-8.47 -26.39,-28.41 -26.56,-29.28 13.39,-15.91 -4,-22.01 -6.64,-1 -2.68,15.97 -0.97,48.74 -0.5,49.16 14.72,13.39 -13.96,21.74 18.61,21.74 29,0 72.37,14.2 77.18,-6.38 1.49,-6.39 -59.12,-16.91 -62.09,-34.24z"/>
   <path id="Secundario_x0020_CurvaPat1" class="fil2 str0" d="M1182.67 2489.05c-14.17,6.17 21.13,22.81 16.29,4.74 -0.61,-2.27 -14.47,-5.54 -16.29,-4.74z"/>
  </g>
  <path id="Curvapampa" class="fil3 str0" d="M1080.96 1767.26c46.05,0 85.44,16.83 88.24,16.88 13.01,0.25 0.67,88.76 24.65,89.74 46.42,1.9 17.78,-37 34.48,-73.76 0.26,-0.57 -22.57,-33.49 -3.32,-26.51 20.76,7.54 95.06,-0.69 109.98,-7.35 61.67,-27.53 52.26,-0.33 95.32,-62.58 51.25,-74.09 -36.65,-28.67 -2.52,-81.51 4.34,-6.72 -38.38,-54.48 -42.79,-54.57 -9.19,-0.2 -9.06,-35.61 -6.22,-39.08 25.11,-30.71 17.86,-45.82 17.86,-86.08 0,-18.73 4.99,-37.85 4.98,-38.08 -2.42,-65.24 -120.83,38.71 -41.69,-83.9 50.48,-78.23 -117.92,-38 -118.02,-35.03 -1.53,47.99 -14.82,54.26 -14.82,101.31 0,5.43 -24.29,-12.75 -24.36,-12.84 -20.22,-26.44 -56.46,-26.2 -93.08,-22.33 -11.4,28.55 -51.64,31.03 -41.84,48.74 19.14,34.62 -9.72,63.4 27.54,74.25 24.54,7.14 7.08,83.3 7.08,114.1 0,28.12 -8.29,52.84 -8.31,53.7 -0.26,11.64 -87.24,12.74 -102.91,13.84 -36.6,2.58 14.46,35.8 -13.21,60.55 2.13,0.88 4.73,1.85 7.79,2.77 38.66,11.66 4.23,47.74 95.17,47.74z"/>
  <path id="Curvanorte" class="fil4 str0" d="M967.15 1309.94c65.89,23.85 71.14,-21.65 79.97,22.83 5.58,28.11 45.18,24.93 44.98,56.33 0,0.13 20.19,20.04 21.66,-8.12 1.45,-27.9 59.44,-6.58 88.58,-7.29 22.67,-0.54 32.91,73.85 36.37,18.83 1.89,-30.1 14.59,-37.1 13.47,-102.53 -0.25,-14.44 10.11,-118.22 -4.86,-118.22 -7.59,0 -101.05,2.55 -66.64,-10.85 3.34,-1.3 22.9,-22.89 24.28,-27.53 19.31,-6.61 23.89,-56.9 23.89,-74.56 0,-30.28 6.77,-41.73 -8.9,-52.46 -28.73,-19.69 -0.42,-35.77 -48.17,-19.85 -14.89,4.97 -24.82,-25.94 -43.46,24.54 -4.45,12.08 -0.26,-18.97 -51.07,-18.97 -56.31,0 -11.55,-30.56 -76.64,30.8 -9.08,8.57 17.77,75.33 -38.17,85.42 -32.61,5.88 -3.24,35.18 -23.75,65.03 0.13,0.47 31.1,27 5.42,47.91 0,7.43 28.33,35.41 -4.04,43.22 -15.44,3.72 -10.71,13.51 -11.3,28.04 29.47,-6.64 9.33,6.91 38.38,17.43z"/>
  <path id="Curvalito" class="fil5 str0" d="M1252.79 1275.9c0.54,-2.04 -2.63,-98.32 -2.9,-99.1 -32.22,-9.3 -104.48,11.13 -40.62,-43.25 9.34,-7.95 29.82,-101.9 17.19,-121.19 -12,-18.32 216.13,102.05 216.13,121.59 0,29.38 -54.3,80.62 -23.7,88.03 21.49,5.2 6.57,13.65 67.44,13.65 50.86,0 17.33,-13.29 63.17,-15.49 14.27,-0.68 2.25,-91.29 54.01,-75.12 9.53,2.98 12.28,67.36 -2.86,87.89 -13.88,18.83 -104.62,48.05 -136.59,101.91 -0.4,0.68 -47.45,39.82 -57.54,52.36 -3.36,4.18 -47.57,-6.68 -68.6,-6.25 -31.52,0.65 44.57,-100.33 16.24,-106.64 -13.12,-2.92 -99.51,-5.39 -101.37,1.61l0 0z"/>
 </g>
</svg>
